<svg width="42" height="42" viewBox="0 0 42 42" fill="none" xmlns="http://www.w3.org/2000/svg">
  <path fill-rule="evenodd" clip-rule="evenodd" d="M21 42C32.598 42 42 32.598 42 21C42 9.402 32.598 0 21 0C9.402 0 0 9.402 0 21C0 32.598 9.402 42 21 42ZM21 39C30.941 39 39 30.941 39 21C39 11.059 30.941 3 21 3C11.059 3 3 11.059 3 21C3 30.941 11.059 39 21 39Z" fill="currentColor"/>
  <path d="M21 6L24.9 18H37.5L27.3 25.5L31.2 37.5L21 30L10.8 37.5L14.7 25.5L4.5 18H17.1L21 6Z" fill="currentColor"/>
</svg> 