<svg width="42" height="42" viewBox="0 0 42 42" fill="none" xmlns="http://www.w3.org/2000/svg">
  <path d="M21 0C9.4 0 0 9.4 0 21C0 32.6 9.4 42 21 42C32.6 42 42 32.6 42 21C42 9.4 32.6 0 21 0ZM30.1 30.3C29.7 30.9 28.9 31.1 28.3 30.7C23.4 27.8 17.3 27.2 10.2 28.8C9.5 29 8.8 28.5 8.6 27.8C8.4 27.1 8.9 26.4 9.6 26.2C17.4 24.4 24.2 25.1 29.7 28.4C30.3 28.8 30.5 29.6 30.1 30.3ZM32.6 24.6C32.1 25.3 31.1 25.5 30.4 25C24.6 21.6 16.2 20.7 9.7 22.8C8.9 23 8 22.6 7.8 21.8C7.6 21 8 20.1 8.8 19.9C16.3 17.5 25.7 18.5 32.3 22.4C33 22.8 33.2 23.8 32.6 24.6ZM32.8 18.6C25.9 14.7 15 14.3 8.7 16.3C7.7 16.6 6.7 16 6.4 15C6.1 14 6.7 13 7.7 12.7C15 10.4 27.1 10.8 35 15.3C35.9 15.8 36.2 17 35.7 17.9C35.2 18.8 34 19.1 32.8 18.6Z" fill="currentColor"/>
</svg> 