<svg width="42" height="42" viewBox="0 0 42 42" fill="none" xmlns="http://www.w3.org/2000/svg">
  <path fill-rule="evenodd" clip-rule="evenodd" d="M33.9 21.1C31.8 21.1 30.1 19.4 30.1 17.3C30.1 15.2 31.8 13.5 33.9 13.5C36 13.5 37.7 15.2 37.7 17.3V21.1H33.9ZM33.9 10.5C30.1 10.5 27 13.6 27 17.3C27 21 30.1 24.1 33.9 24.1H40.7V17.3C40.7 13.6 37.6 10.5 33.9 10.5Z" fill="currentColor"/>
  <path d="M8.3 10.8L12.1 10.8L15.4 20.1L19.1 10.8L22.9 10.8L16.9 24.8C16.1 26.7 14.5 27.8 12.5 27.8C11.5 27.8 10.5 27.6 9.6 27.2L9.6 24.4C10.5 25 11.5 25.4 12.5 25.4C13.4 25.4 14.1 24.9 14.5 24.1L8.3 10.8Z" fill="currentColor"/>
</svg> 